<svg viewBox="0 0 32 32" fill="none" xmlns="http://www.w3.org/2000/svg">
  <path
    d="M31.7836 15.8935L24.5312 3.76711C24.2732 3.32171 23.7829 3 23.2409 3H8.73624C8.22024 3 7.72974 3.32171 7.44599 3.76711L0.193527 15.869C0.0665968 16.0886 0 16.3356 0 16.5867C0 16.8377 0.0665968 17.0847 0.193527 17.3043L7.44599 29.3319C7.70399 29.7773 8.19424 30 8.73624 30H23.2667C23.7829 30 24.2732 29.7773 24.5572 29.3566L31.8096 17.329C32.0676 16.8342 32.0676 16.3142 31.7836 15.8935ZM25.7699 21.7092C25.7699 21.8825 25.6667 22.0556 25.4859 22.1299L16.2465 27.2528C16.1699 27.3012 16.0801 27.3271 15.9883 27.3271C15.8966 27.3271 15.8068 27.3012 15.7302 27.2528L6.46525 22.1548C6.31025 22.0558 6.18125 21.9074 6.18125 21.7341V11.4637C6.18125 11.2906 6.2845 11.1173 6.46525 11.0432L15.7305 5.92031C15.8071 5.87185 15.8968 5.84602 15.9886 5.84602C16.0803 5.84602 16.1701 5.87185 16.2467 5.92031L25.5122 11.0432C25.6669 11.142 25.7959 11.2906 25.7959 11.4637V21.7094L25.7699 21.7092Z"
    fill="#4B32C3"
  />
  <path
    d="M25.7699 21.7092C25.7699 21.8825 25.6667 22.0556 25.4859 22.1299L16.2465 27.2528C16.1699 27.3012 16.0801 27.3271 15.9883 27.3271C15.8966 27.3271 15.8068 27.3012 15.7302 27.2528L6.46525 22.1548C6.31025 22.0558 6.18125 21.9074 6.18125 21.7341V11.4637C6.18125 11.2906 6.2845 11.1173 6.46525 11.0432L15.7305 5.92031C15.8071 5.87185 15.8968 5.84602 15.9886 5.84602C16.0803 5.84602 16.1701 5.87185 16.2467 5.92031L25.5122 11.0432C25.6669 11.142 25.7959 11.2906 25.7959 11.4637V21.7094L25.7699 21.7092Z"
    fill="white"
  />
  <path
    d="M10.2322 12.6885C10.2322 12.3347 10.5239 12.0479 10.8839 12.0479H20.9857C21.3456 12.0479 21.6374 12.3347 21.6374 12.6885V13.3931C21.6374 13.7469 21.3456 14.0337 20.9857 14.0337H10.8839C10.5239 14.0337 10.2322 13.7469 10.2322 13.3931V12.6885Z"
    fill="#4B32C3"
  />
  <path
    d="M10.2322 16.0196C10.2322 15.6658 10.5239 15.379 10.8839 15.379H17.5967C17.9566 15.379 18.2484 15.6658 18.2484 16.0196V16.7242C18.2484 17.078 17.9566 17.3648 17.5967 17.3648H10.8839C10.5239 17.3648 10.2322 17.078 10.2322 16.7242V16.0196Z"
    fill="#4B32C3"
  />
  <path
    d="M10.2322 19.2866C10.2322 18.9328 10.5239 18.646 10.8839 18.646H14.7291C15.089 18.646 15.3808 18.9328 15.3808 19.2866V20.0553C15.3808 20.4091 15.089 20.6959 14.7291 20.6959H10.8839C10.5239 20.6959 10.2322 20.4091 10.2322 20.0553V19.2866Z"
    fill="#4B32C3"
  />
</svg>
