<svg viewBox="0 0 32 32" fill="none" xmlns="http://www.w3.org/2000/svg">
  <path
    d="M31.1912 16.6406L24.2415 28.3623C24.112 28.567 23.9306 28.7338 23.7159 28.8457C23.5012 28.9577 23.2606 29.0109 23.0187 29H9.11383C8.87126 29.0095 8.63049 28.9548 8.4158 28.8415C8.20111 28.7282 8.0201 28.5603 7.89102 28.3547L0.939143 16.6516C0.815296 16.4407 0.75 16.2005 0.75 15.9559C0.75 15.7114 0.815296 15.4712 0.939143 15.2603L7.88883 3.48938C8.01314 3.272 8.19092 3.08998 8.4053 2.96059C8.61969 2.83119 8.86357 2.7587 9.11383 2.75H23.0143C23.2644 2.75929 23.508 2.83228 23.722 2.96206C23.936 3.09183 24.1133 3.27409 24.2371 3.49156L31.1868 15.2888C31.3099 15.4931 31.3749 15.7272 31.3749 15.9658C31.3749 16.2044 31.3099 16.4384 31.1868 16.6428L31.1912 16.6406ZM25.4359 21.2344V10.7191L16.0624 5.44719L6.69992 10.7191V21.2344L16.0624 26.5052L25.4359 21.2344Z"
    fill="#4B32C3"
  />
  <path
    d="M25.4359 21.2344V10.7191L16.0624 5.44719L6.69992 10.7191V21.2344L16.0624 26.5052L25.4359 21.2344Z"
    fill="white"
  />
  <rect x="10.5" y="11.5" width="11" height="2" rx="1" fill="#4B32C3" />
  <rect x="10.5" y="14.75" width="7.75" height="2" rx="1" fill="#4B32C3" />
  <rect x="10.5" y="18" width="5" height="2" rx="1" fill="#4B32C3" />
</svg>
