<svg viewBox="0 0 128 128" fill="none" xmlns="http://www.w3.org/2000/svg">
  <g filter="url(#filter0_d_1029_237)">
    <path
      d="M93.9891 115L34.0375 114.983L4 64.208L33.9964 13L94.0129 13.0058L124 64.2468L93.9891 115ZM100.729 85.0076V43.5722L63.9999 22.7984L27.3141 43.5722V85.0076L63.9999 105.777L100.729 85.0076Z"
      fill="#4B32C3"
    />
    <path
      d="M100.729 85.0076V43.5722L63.9999 22.7984L27.3141 43.5722V85.0076L63.9999 105.777L100.729 85.0076Z"
      fill="white"
    />
    <path d="M44 49H84V55.5H44V49Z" fill="#4B32C3" />
    <path d="M44 61H74V67.5H44V61Z" fill="#4B32C3" />
    <path d="M44 73H64V79.5H44V73Z" fill="#4B32C3" />
  </g>
  <defs>
    <filter
      id="filter0_d_1029_237"
      x="0"
      y="13"
      width="128"
      height="110"
      filterUnits="userSpaceOnUse"
      color-interpolation-filters="sRGB"
    >
      <feFlood flood-opacity="0" result="BackgroundImageFix" />
      <feColorMatrix
        in="SourceAlpha"
        type="matrix"
        values="0 0 0 0 0 0 0 0 0 0 0 0 0 0 0 0 0 0 127 0"
        result="hardAlpha"
      />
      <feOffset dy="4" />
      <feGaussianBlur stdDeviation="2" />
      <feComposite in2="hardAlpha" operator="out" />
      <feColorMatrix type="matrix" values="0 0 0 0 0.108333 0 0 0 0 0.108333 0 0 0 0 0.108333 0 0 0 0.2 0" />
      <feBlend mode="normal" in2="BackgroundImageFix" result="effect1_dropShadow_1029_237" />
      <feBlend mode="normal" in="SourceGraphic" in2="effect1_dropShadow_1029_237" result="shape" />
    </filter>
  </defs>
</svg>
