<svg viewBox="0 0 128 128" fill="none" xmlns="http://www.w3.org/2000/svg">
<g filter="url(#filter0_d_904_161)">
<path d="M119.328 66.8L93.912 109.668C93.4383 110.416 92.7751 111.026 91.9898 111.436C91.2044 111.845 90.3248 112.04 89.44 112H38.588C37.7009 112.035 36.8203 111.835 36.0352 111.42C35.25 111.006 34.588 110.392 34.116 109.64L8.69197 66.84C8.23904 66.0687 8.00024 65.1905 8.00024 64.296C8.00024 63.4015 8.23904 62.5233 8.69197 61.752L34.108 18.704C34.5626 17.909 35.2127 17.2434 35.9968 16.7701C36.7808 16.2969 37.6727 16.0318 38.588 16H89.424C90.3386 16.034 91.2294 16.3009 92.012 16.7755C92.7946 17.2501 93.443 17.9167 93.896 18.712L119.312 61.856C119.762 62.6035 120 63.4595 120 64.332C120 65.2045 119.762 66.0605 119.312 66.808L119.328 66.8ZM98.28 83.6V45.144L64 25.864L29.76 45.144V83.6L64 102.876L98.28 83.6Z" fill="#4B32C3"/>
<path d="M98.28 83.6V45.144L64 25.864L29.76 45.144V83.6L64 102.876L98.28 83.6Z" fill="white"/>
</g>
<path d="M59.5 77.3636H47.7662M71.2115 64.8636H47.7662M81.0996 52.3636H47.7662" stroke="#4B32C3" stroke-width="7" stroke-linecap="round" stroke-linejoin="round"/>
<defs>
<filter id="filter0_d_904_161" x="4.00024" y="16" width="120" height="104.005" filterUnits="userSpaceOnUse" color-interpolation-filters="sRGB">
<feFlood flood-opacity="0" result="BackgroundImageFix"/>
<feColorMatrix in="SourceAlpha" type="matrix" values="0 0 0 0 0 0 0 0 0 0 0 0 0 0 0 0 0 0 127 0" result="hardAlpha"/>
<feOffset dy="4"/>
<feGaussianBlur stdDeviation="2"/>
<feComposite in2="hardAlpha" operator="out"/>
<feColorMatrix type="matrix" values="0 0 0 0 0 0 0 0 0 0 0 0 0 0 0 0 0 0 0.25 0"/>
<feBlend mode="normal" in2="BackgroundImageFix" result="effect1_dropShadow_904_161"/>
<feBlend mode="normal" in="SourceGraphic" in2="effect1_dropShadow_904_161" result="shape"/>
</filter>
</defs>
</svg>
