<svg viewBox="0 0 128 128" fill="none" xmlns="http://www.w3.org/2000/svg">
  <path
    d="M127.135 61.4703L98.1247 12.1218C97.0927 10.3092 95.1317 9 92.9637 9H34.945C32.881 9 30.919 10.3092 29.784 12.1218L0.774109 61.3708C0.266387 62.2644 0 63.2693 0 64.2911C0 65.3128 0.266387 66.3178 0.774109 67.2114L29.784 116.158C30.816 117.971 32.777 118.877 34.945 118.877H93.0667C95.1317 118.877 97.0927 117.971 98.2287 116.258L127.239 67.3119C128.271 65.2983 128.271 63.1824 127.135 61.4703ZM103.08 85.1372C103.08 85.8426 102.667 86.5469 101.944 86.8493L64.9858 107.697C64.6794 107.894 64.3204 107.999 63.9533 107.999C63.5862 107.999 63.2272 107.894 62.9208 107.697L25.861 86.9508C25.241 86.5479 24.725 85.944 24.725 85.2387V43.443C24.725 42.7386 25.138 42.0333 25.861 41.7318L62.9218 20.8842C63.2282 20.687 63.5872 20.5819 63.9543 20.5819C64.3214 20.5819 64.6804 20.687 64.9868 20.8842L102.049 41.7318C102.668 42.1338 103.184 42.7386 103.184 43.443V85.1382L103.08 85.1372Z"
    fill="#4B32C3"
  />
  <path
    d="M103.08 85.1372C103.08 85.8426 102.667 86.5469 101.944 86.8493L64.9858 107.697C64.6794 107.894 64.3204 107.999 63.9533 107.999C63.5862 107.999 63.2272 107.894 62.9208 107.697L25.861 86.9508C25.241 86.5479 24.725 85.944 24.725 85.2387V43.443C24.725 42.7386 25.138 42.0333 25.861 41.7318L62.9218 20.8842C63.2282 20.687 63.5872 20.5819 63.9543 20.5819C64.3214 20.5819 64.6804 20.687 64.9868 20.8842L102.049 41.7318C102.668 42.1338 103.184 42.7386 103.184 43.443V85.1382L103.08 85.1372Z"
    fill="white"
  />
  <path
    d="M40.9286 48.4273C40.9286 46.9875 42.0958 45.8204 43.5356 45.8204H83.9427C85.3825 45.8204 86.5496 46.9875 86.5496 48.4273V51.2949C86.5496 52.7346 85.3825 53.9018 83.9427 53.9018H43.5356C42.0958 53.9018 40.9286 52.7346 40.9286 51.2949V48.4273Z"
    fill="#4B32C3"
  />
  <path
    d="M40.9286 61.9832C40.9286 60.5435 42.0958 59.3763 43.5356 59.3763H70.3868C71.8265 59.3763 72.9937 60.5435 72.9937 61.9832V64.8508C72.9937 66.2906 71.8265 67.4577 70.3868 67.4577H43.5356C42.0958 67.4577 40.9286 66.2906 40.9286 64.8508V61.9832Z"
    fill="#4B32C3"
  />
  <path
    d="M40.9286 75.2785C40.9286 73.8387 42.0958 72.6716 43.5356 72.6716H58.9163C60.3561 72.6716 61.5233 73.8387 61.5233 75.2785V78.4068C61.5233 79.8465 60.3561 81.0137 58.9163 81.0137H43.5356C42.0958 81.0137 40.9286 79.8465 40.9286 78.4068V75.2785Z"
    fill="#4B32C3"
  />
</svg>
