<svg xmlns="http://www.w3.org/2000/svg" viewBox="0 0 24 24" fill="none">
  <path
    d="M2.4852 11.5C2.76325 6.27941 7.26217 2.23547 12.4828 2.51352C17.6664 2.7896 21.7388 6.82551 21.5204 11.4096C21.3661 14.3057 18.8628 16.5549 15.9667 16.4007C15.0319 16.3509 13.7073 15.988 12.9203 16.6955C12.313 17.2413 12.2036 18.2681 12.7634 18.8887C13.5817 19.9175 12.8507 21.5711 11.4717 21.4976C6.25109 21.2196 2.20715 16.7207 2.4852 11.5Z"
    stroke-linejoin="round"
    stroke-linecap="round"
    stroke="currentColor"
    stroke-width="1.75"
  />
  <path
    d="M6.47874 11C6.47874 10.4477 6.92645 10 7.47874 10C8.03102 10 8.47874 10.4477 8.47874 11C8.47874 11.5523 8.03102 12 7.47874 12C6.92645 12 6.47874 11.5523 6.47874 11Z"
    stroke-linejoin="round"
    stroke-linecap="round"
    stroke="currentColor"
    stroke-width="1.75"
  />
  <path
    d="M11.249 7.2627C11.249 6.71041 11.6967 6.2627 12.249 6.2627C12.8013 6.2627 13.249 6.71041 13.249 7.2627C13.249 7.81498 12.8013 8.2627 12.249 8.2627C11.6967 8.2627 11.249 7.81498 11.249 7.2627Z"
    stroke-linejoin="round"
    stroke-linecap="round"
    stroke="currentColor"
    stroke-width="1.75"
  />
  <path
    d="M15.7236 11C15.7236 10.4477 16.1714 10 16.7236 10C17.2759 10 17.7236 10.4477 17.7236 11C17.7236 11.5523 17.2759 12 16.7236 12C16.1714 12 15.7236 11.5523 15.7236 11Z"
    stroke-linejoin="round"
    stroke-linecap="round"
    stroke="currentColor"
    stroke-width="1.75"
  />
</svg>
