<svg xmlns="http://www.w3.org/2000/svg" viewBox="0 0 24 24" fill="none">
  <path
    d="M16 6L14.8944 3.78885C14.3463 2.69253 13.2257 2 12 2C10.7743 2 9.65374 2.69253 9.10557 3.78885L8 6M4 6H20M10 11V16M14 11V16M6 6H18V15C18 16.8638 18 17.7957 17.6955 18.5307C17.2895 19.5108 16.5108 20.2895 15.5307 20.6955C14.7956 21 13.8638 21 12 21C10.1362 21 9.20435 21 8.46927 20.6955C7.48915 20.2895 6.71046 19.5108 6.30448 18.5307C6 17.7957 6 16.8638 6 15V6Z"
    stroke-linejoin="round"
    stroke-linecap="round"
    stroke="currentColor"
    stroke-width="1.75"
  />
</svg>
