<svg xmlns="http://www.w3.org/2000/svg" viewBox="0 0 24 24" fill="none">
  <path
    d="M3.96222 7.62351C4.64129 8.34675 5.51738 8.93146 6.52178 9.31948C6.26903 9.76985 6.12491 10.2894 6.12491 10.8426C6.12491 12.3467 7.19045 13.602 8.60788 13.8948C8.54745 14.0716 8.51465 14.2613 8.51465 14.4586C8.51465 15.4209 9.29476 16.201 10.2571 16.201C11.2194 16.201 11.9995 15.4209 11.9995 14.4586C11.9995 13.9198 11.755 13.4382 11.3709 13.1186C11.9785 12.5498 12.3583 11.7405 12.3583 10.8426C12.3583 10.329 12.2341 9.84436 12.014 9.41719C14.5549 8.54333 16.3466 6.43274 16.3466 3.96789C16.3466 3.96079 16.3466 3.95369 16.3465 3.94659M3.96222 7.62351C3.25279 8.92357 2.84961 10.4148 2.84961 12.0001C2.84961 17.0535 6.9462 21.1501 11.9996 21.1501C13.404 21.1501 14.7346 20.8337 15.9238 20.2683M3.96222 7.62351C5.51413 4.77952 8.53155 2.8501 11.9996 2.8501C13.5729 2.8501 15.0535 3.24718 16.3465 3.94659M16.3465 3.94659C19.2068 5.49367 21.1496 8.52 21.1496 12.0001C21.1496 13.4685 20.8037 14.8561 20.189 16.0858M15.9238 20.2683C15.6944 19.8342 15.5646 19.3394 15.5646 18.8142C15.5646 18.1589 15.7668 17.5508 16.1123 17.0489C15.8808 16.7531 15.7428 16.3806 15.7428 15.9759C15.7428 15.0135 16.5229 14.2334 17.4852 14.2334C18.3684 14.2334 19.0982 14.8906 19.2122 15.7426C19.561 15.8024 19.89 15.9203 20.189 16.0858M15.9238 20.2683C17.7703 19.3903 19.2761 17.9121 20.189 16.0858"
    stroke-linejoin="round"
    stroke-linecap="round"
    stroke="currentColor"
    stroke-width="1.75"
  />
</svg>
