<svg viewBox="0 0 24 24" fill="none" xmlns="http://www.w3.org/2000/svg">
  <path
    d="M9.74 15.2916C9.08732 15.991 8.98919 16.6227 9 17.5793V20.9993M14 15.337C14.6527 16.0364 15.0108 16.6227 15 17.5793V20.9993M9 19.0493C8.10549 19.4055 7.13532 19.5294 6.18 19.4093C4.66 18.8893 5.06 17.5093 4.28 16.9393C3.90518 16.6713 3.46037 16.5184 3 16.4993M19.2063 9.74927C19.2063 12.7493 17.05 15.5 12 15.5C6.95 15.5 4.54248 12.7493 4.54248 9.74927C4.51778 8.70844 5.20893 7.67772 5.68 6.74927C5.34 5.27927 5.47 3.46927 6.2 3.10927C6.93 2.74927 8.47 3.40927 9.74 4.25927C10.486 4.12615 11.2422 4.05922 12 4.05927C12.7572 4.05262 13.5134 4.11285 14.26 4.23927C15.53 3.38927 17.14 2.75927 17.8 3.08927C18.46 3.41927 18.66 5.25927 18.32 6.72927C18.7943 7.66371 19.2343 8.70171 19.2063 9.74927Z"
    stroke-linejoin="round"
    stroke-linecap="round"
    stroke="currentColor"
    stroke-width="1.75"
  />
</svg>
