<svg xmlns="http://www.w3.org/2000/svg" viewBox="0 0 24 24" fill="none">
  <path
    d="M12.8155 5.44439C12.9344 5.15302 13 4.83416 13 4.5C13 3.11929 11.8807 2 10.5 2C9.11929 2 8 3.11929 8 4.5C8 4.83416 8.06556 5.15302 8.18453 5.44439C8.27599 5.66841 8.32172 5.78042 8.3097 5.83971C8.29778 5.89857 8.27453 5.93318 8.22455 5.96646C8.17419 6 8.06921 6 7.85924 6H7.8C6.11984 6 5.27976 6 4.63803 6.32698C4.07354 6.6146 3.6146 7.07354 3.32698 7.63803C3 8.27976 3 9.11984 3 10.8V11.4998C3.41783 11.186 3.9372 11 4.5 11C5.88071 11 7 12.1193 7 13.5C7 14.8807 5.88071 16 4.5 16C3.9372 16 3.41783 15.814 3 15.5002V16.2C3 17.8802 3 18.7202 3.32698 19.362C3.6146 19.9265 4.07354 20.3854 4.63803 20.673C5.27976 21 6.11984 21 7.8 21H13.2C14.8802 21 15.7202 21 16.362 20.673C16.9265 20.3854 17.3854 19.9265 17.673 19.362C18 18.7202 18 17.8802 18 16.2V15.6408C18 15.4308 18 15.3258 18.0335 15.2755C18.0668 15.2255 18.1014 15.2022 18.1603 15.1903C18.2196 15.1783 18.3316 15.224 18.5556 15.3155C18.847 15.4344 19.1658 15.5 19.5 15.5C20.8807 15.5 22 14.3807 22 13C22 11.6193 20.8807 10.5 19.5 10.5C19.0088 10.5 18.5508 10.6416 18.1644 10.8863C18.0949 10.9303 18 10.8823 18 10.8C18 9.11984 18 8.27976 17.673 7.63803C17.3854 7.07354 16.9265 6.6146 16.362 6.32698C15.7202 6 14.8802 6 13.2 6H13.1408C12.9308 6 12.8258 6 12.7755 5.96646C12.7255 5.93318 12.7022 5.89857 12.6903 5.83971C12.6783 5.78042 12.724 5.66841 12.8155 5.44439Z"
    stroke-linejoin="round"
    stroke-linecap="round"
    stroke="currentColor"
    stroke-width="1.75"
  />
</svg>
