<svg xmlns="http://www.w3.org/2000/svg" viewBox="0 0 24 24" fill="none">
  <path
    d="M5.83087 18.1688L3.00261 20.9974M7.95219 20.2901L7.24508 20.9972M3.70955 16.0474L3.00244 16.7546M11.3588 6.14795L6.98115 6.14795C6.65417 6.14795 6.43834 6.20774 6.15796 6.37596L4.34408 7.46429C3.91094 7.72417 3.69438 7.85411 3.63232 8.0134C3.5783 8.15207 3.58885 8.3076 3.66112 8.43769C3.74412 8.58714 3.97626 8.68663 4.44054 8.8856L7.91447 10.3744M11.3588 6.14795C10.7176 6.78963 10.1116 7.56384 9.18973 8.74166L8.32567 9.84559C8.16879 10.046 8.0327 10.2199 7.91447 10.3744M11.3588 6.14795C11.6532 5.85335 11.955 5.58668 12.2982 5.32172C13.0456 4.74471 14.6119 3.9067 15.5067 3.60511C16.8125 3.16496 17.3933 3.12082 18.5548 3.03254C19.5534 2.95664 20.3717 3.01115 20.6801 3.31952C20.9885 3.6279 21.043 4.4462 20.9671 5.44487C20.8788 6.60636 20.8347 7.18711 20.3945 8.49293C20.0929 9.38769 19.2549 10.954 18.6779 11.7014C18.413 12.0446 18.1463 12.3464 17.8517 12.6408M7.91447 10.3744C7.58676 10.8028 7.39618 11.0827 7.27999 11.3688C6.93821 12.2101 6.99595 13.161 7.43702 13.9549C7.64105 14.3221 7.98047 14.6615 8.6593 15.3403C9.33813 16.0192 9.67754 16.3586 10.0448 16.5626C10.8386 17.0037 11.7895 17.0614 12.6309 16.7196C12.9169 16.6035 13.1968 16.4129 13.6252 16.0852M13.6252 16.0852L15.114 19.5591C15.313 20.0234 15.4125 20.2555 15.5619 20.3385C15.692 20.4108 15.8476 20.4213 15.9862 20.3673C16.1455 20.3053 16.2755 20.0887 16.5353 19.6556L17.6237 17.8417C17.7919 17.5613 17.8517 17.3455 17.8517 17.0185L17.8517 12.6408M13.6252 16.0852C13.7798 15.9669 13.9536 15.8308 14.154 15.674L15.258 14.8099C16.4358 13.888 17.21 13.282 17.8517 12.6408"
    stroke-linejoin="round"
    stroke-linecap="round"
    stroke="currentColor"
    stroke-width="1.75"
  />
</svg>
