<svg xmlns="http://www.w3.org/2000/svg" viewBox="0 0 24 24" fill="none">
  <path
    d="M9.14921 6.24743C9.99122 4.48286 10.4122 3.60057 10.9617 3.28045C11.6035 2.90652 12.3968 2.90652 13.0386 3.28045C13.588 3.60057 14.009 4.48286 14.8511 6.24743C15.1005 6.77026 15.2253 7.03167 15.4038 7.23964C15.6135 7.48393 15.8775 7.67574 16.1747 7.79971C16.4277 7.90525 16.7148 7.9431 17.2892 8.01881C19.2276 8.27433 20.1968 8.40209 20.671 8.82571C21.225 9.32056 21.4701 10.075 21.3128 10.801C21.1781 11.4225 20.4691 12.0955 19.0511 13.4416C18.631 13.8404 18.4209 14.0398 18.2783 14.2739C18.1108 14.5489 18.0099 14.8592 17.9838 15.1801C17.9616 15.4533 18.0144 15.7381 18.1198 16.3077C18.4758 18.2302 18.6538 19.1915 18.3975 19.7734C18.098 20.4532 17.4562 20.9195 16.7172 20.9942C16.0845 21.0582 15.2254 20.5918 13.507 19.6592C12.9978 19.3829 12.7432 19.2447 12.4766 19.1814C12.1633 19.107 11.837 19.107 11.5237 19.1814C11.257 19.2447 11.0024 19.3829 10.4933 19.6592C8.77491 20.5918 7.91572 21.0582 7.28306 20.9942C6.54402 20.9195 5.90222 20.4532 5.60278 19.7734C5.34643 19.1915 5.52443 18.2302 5.88042 16.3077C5.98589 15.7381 6.03863 15.4533 6.01642 15.1801C5.99034 14.8592 5.8895 14.5489 5.72198 14.2739C5.57936 14.0398 5.36929 13.8404 4.94915 13.4416C3.53113 12.0955 2.82213 11.4225 2.68746 10.801C2.53016 10.075 2.7753 9.32056 3.32927 8.82571C3.8035 8.40209 4.77271 8.27433 6.71111 8.01881C7.28544 7.9431 7.57261 7.90525 7.82557 7.79971C8.12272 7.67574 8.38672 7.48393 8.59644 7.23964C8.77499 7.03167 8.89973 6.77026 9.14921 6.24743Z"
    stroke-linejoin="round"
    stroke-linecap="round"
    stroke="currentColor"
    stroke-width="1.75"
  />
</svg>
