<svg xmlns="http://www.w3.org/2000/svg" viewBox="0 0 24 24" fill="none">
  <path
    d="M13.6672 7.84076C13.8108 8.42155 14.1097 8.97368 14.568 9.43193C15.0262 9.89017 15.5783 10.189 16.1591 10.3327M13.6672 7.84076C13.3547 6.57723 13.777 5.17802 14.8916 4.31463L17.2341 2.5L16.915 3.11595C16.3248 4.25512 16.5402 5.64531 17.4474 6.55251C18.3546 7.45971 19.7448 7.67508 20.8839 7.0849L21.4999 6.7658L19.6853 9.10832C18.8219 10.2229 17.4227 10.6452 16.1591 10.3327M13.6672 7.84076L3.56706 16.609C3.35292 16.7949 3.24585 16.8879 3.16484 16.9733C2.11129 18.0844 2.44365 19.5888 3.42735 20.5725C4.41105 21.5562 5.91545 21.8886 7.02658 20.835C7.11182 20.7542 7.20455 20.6474 7.38963 20.4342L16.1591 10.3327M21.1556 21.3911L15.999 16.2346M5.44831 9.90825L3.47739 7.93731C3.14894 7.60886 2.98471 7.44463 2.86906 7.28546C2.23245 6.40924 2.23245 5.22275 2.86906 4.34653C3.19975 3.89137 3.67409 3.41703 4.12925 3.08634C5.00547 2.44973 6.19196 2.44973 7.06817 3.08634C7.22735 3.20199 7.39158 3.36622 7.72003 3.69467L9.99903 5.97367"
    stroke-linejoin="round"
    stroke-linecap="round"
    stroke="currentColor"
    stroke-width="1.75"
  />
</svg>
